<?xml version="1.0" encoding="UTF-8" ?>
<!DOCTYPE svg PUBLIC "-//W3C//DTD SVG 1.1//EN" "http://www.w3.org/Graphics/SVG/1.1/DTD/svg11.dtd">
<svg width="722pt" height="722pt" viewBox="0 0 722 722" version="1.1" xmlns="http://www.w3.org/2000/svg">
<g id="#ffffffff">
<path fill="#ffffff" opacity="1.00" d=" M 0.00 0.00 L 722.00 0.00 L 722.00 722.00 L 0.00 722.00 L 0.00 0.00 M 372.33 100.27 C 360.00 101.48 350.12 110.79 343.99 120.98 C 338.46 130.09 332.72 139.07 327.22 148.19 C 305.78 184.98 283.75 221.42 262.03 258.03 C 205.31 353.67 148.29 449.12 91.84 544.91 C 86.98 553.20 83.94 563.00 85.43 572.66 C 86.63 580.54 91.98 587.42 98.93 591.16 C 103.57 593.66 108.59 595.94 113.97 595.93 C 123.82 595.98 133.29 591.06 139.57 583.58 C 147.44 574.32 152.63 563.23 158.92 552.92 C 224.78 442.09 290.64 331.27 356.50 220.44 C 361.26 212.64 365.69 204.57 371.36 197.37 C 373.28 194.37 377.95 194.05 380.28 196.74 C 383.82 200.39 385.98 205.07 388.59 209.36 C 448.66 310.81 508.06 412.64 567.52 514.44 C 570.07 519.42 574.32 524.70 572.62 530.64 C 568.95 534.60 563.07 534.88 558.03 535.02 C 530.35 534.99 502.68 534.99 475.01 535.01 C 469.54 534.87 463.78 534.73 458.79 532.22 C 456.28 531.08 455.80 528.04 456.72 525.69 C 460.93 511.77 471.48 500.47 474.06 485.95 C 475.71 476.98 473.13 466.97 466.18 460.81 C 459.40 454.93 450.25 451.30 441.21 452.42 C 434.85 453.61 429.12 457.08 424.25 461.24 C 417.04 467.72 412.82 476.64 407.66 484.67 C 396.16 503.04 385.33 521.80 374.51 540.57 C 369.73 548.33 365.77 556.84 364.88 566.01 C 363.61 574.75 368.04 583.81 375.20 588.80 C 381.76 593.59 389.91 595.90 397.98 596.00 C 461.65 595.99 525.33 596.00 589.00 596.00 C 593.62 595.97 598.25 596.20 602.86 595.78 C 612.01 594.83 620.81 591.47 628.59 586.61 C 638.48 580.42 645.78 569.93 647.45 558.30 C 650.01 545.30 647.50 531.52 640.91 520.07 C 626.88 494.98 611.95 470.42 597.35 445.67 C 535.25 341.41 473.61 236.88 411.18 132.82 C 406.25 124.61 401.57 116.08 394.86 109.14 C 388.94 103.41 380.77 99.19 372.33 100.27 M 368.33 335.39 C 358.66 337.01 351.57 344.64 346.60 352.58 C 315.11 404.87 284.06 457.43 252.97 509.96 C 245.01 523.99 236.05 537.47 229.03 552.01 C 225.36 559.24 224.68 567.78 226.40 575.64 C 231.05 592.20 252.69 601.11 267.69 592.70 C 277.59 588.21 283.35 578.63 288.69 569.68 C 324.81 509.13 360.75 448.47 396.87 387.92 C 401.53 380.08 405.90 371.39 405.29 362.00 C 405.11 354.43 401.31 347.22 395.74 342.22 C 388.17 336.12 377.87 333.57 368.33 335.39 Z" />
</g>
<g id="#70c6beff">
<path fill="#70c6be" opacity="1.00" d=" M 372.33 100.27 C 380.77 99.19 388.94 103.41 394.86 109.14 C 401.57 116.08 406.25 124.61 411.18 132.82 C 473.61 236.88 535.25 341.41 597.35 445.67 C 611.95 470.42 626.88 494.98 640.91 520.07 C 647.50 531.52 650.01 545.30 647.45 558.30 C 645.78 569.93 638.48 580.42 628.59 586.61 C 620.81 591.47 612.01 594.83 602.86 595.78 C 598.25 596.20 593.62 595.97 589.00 596.00 C 525.33 596.00 461.65 595.99 397.98 596.00 C 389.91 595.90 381.76 593.59 375.20 588.80 C 368.04 583.81 363.61 574.75 364.88 566.01 C 365.77 556.84 369.73 548.33 374.51 540.57 C 385.33 521.80 396.16 503.04 407.66 484.67 C 412.82 476.64 417.04 467.72 424.25 461.24 C 429.12 457.08 434.85 453.61 441.21 452.42 C 450.25 451.30 459.40 454.93 466.18 460.81 C 473.13 466.97 475.71 476.98 474.06 485.95 C 471.48 500.47 460.93 511.77 456.72 525.69 C 455.80 528.04 456.28 531.08 458.79 532.22 C 463.78 534.73 469.54 534.87 475.01 535.01 C 502.68 534.99 530.35 534.99 558.03 535.02 C 563.07 534.88 568.95 534.60 572.62 530.64 C 574.32 524.70 570.07 519.42 567.52 514.44 C 508.06 412.64 448.66 310.81 388.59 209.36 C 385.98 205.07 383.82 200.39 380.28 196.74 C 377.95 194.05 373.28 194.37 371.36 197.37 C 365.69 204.57 361.26 212.64 356.50 220.44 C 290.64 331.27 224.78 442.09 158.92 552.92 C 152.63 563.23 147.44 574.32 139.57 583.58 C 133.29 591.06 123.82 595.98 113.97 595.93 C 108.59 595.94 103.57 593.66 98.93 591.16 C 91.98 587.42 86.63 580.54 85.43 572.66 C 83.94 563.00 86.98 553.20 91.84 544.91 C 148.29 449.12 205.31 353.67 262.03 258.03 C 283.75 221.42 305.78 184.98 327.22 148.19 C 332.72 139.07 338.46 130.09 343.99 120.98 C 350.12 110.79 360.00 101.48 372.33 100.27 Z" />
</g>
<g id="#1ba0d8ff">
<path fill="#1ba0d8" opacity="1.00" d=" M 368.33 335.39 C 377.87 333.57 388.17 336.12 395.74 342.22 C 401.31 347.22 405.11 354.43 405.29 362.00 C 405.90 371.39 401.53 380.08 396.87 387.92 C 360.75 448.47 324.81 509.13 288.69 569.68 C 283.35 578.63 277.59 588.21 267.69 592.70 C 252.69 601.11 231.05 592.20 226.40 575.64 C 224.68 567.78 225.36 559.24 229.03 552.01 C 236.05 537.47 245.01 523.99 252.97 509.96 C 284.06 457.43 315.11 404.87 346.60 352.58 C 351.57 344.64 358.66 337.01 368.33 335.39 Z" />
</g>
</svg>
