<svg width="722" height="722" xmlns="http://www.w3.org/2000/svg" version="1.1">

 <g>
  <title>background</title>
  <rect fill="none" id="canvas_background" height="631" width="1182" y="-1" x="-1"/>
 </g>
 <g>
  <title>Layer 1</title>
  <g opacity="0" id="#ffffffff">
   <path id="svg_1" d="m0,0l722,0l0,722l-722,0l0,-722m372.33,100.27c-12.33,1.21 -22.21,10.52 -28.34,20.71c-5.53,9.11 -11.27,18.09 -16.77,27.21c-21.44,36.79 -43.47,73.23 -65.19,109.84c-56.72,95.64 -113.74,191.09 -170.19,286.88c-4.86,8.29 -7.9,18.09 -6.41,27.75c1.2,7.88 6.55,14.76 13.5,18.5c4.64,2.5 9.66,4.78 15.04,4.77c9.85,0.05 19.32,-4.87 25.6,-12.35c7.87,-9.26 13.06,-20.35 19.35,-30.66c65.86,-110.83 131.72,-221.65 197.58,-332.48c4.76,-7.8 9.19,-15.87 14.86,-23.07c1.92,-3 6.59,-3.32 8.92,-0.63c3.54,3.65 5.7,8.33 8.31,12.62c60.07,101.45 119.47,203.28 178.93,305.08c2.55,4.98 6.8,10.26 5.1,16.2c-3.67,3.96 -9.55,4.24 -14.59,4.38c-27.68,-0.03 -55.35,-0.03 -83.02,-0.01c-5.47,-0.14 -11.23,-0.28 -16.22,-2.79c-2.51,-1.14 -2.99,-4.18 -2.07,-6.53c4.21,-13.92 14.76,-25.22 17.34,-39.74c1.65,-8.97 -0.93,-18.98 -7.88,-25.14c-6.78,-5.88 -15.93,-9.51 -24.97,-8.39c-6.36,1.19 -12.09,4.66 -16.96,8.82c-7.21,6.48 -11.43,15.4 -16.59,23.43c-11.5,18.37 -22.33,37.13 -33.15,55.9c-4.78,7.76 -8.74,16.27 -9.63,25.44c-1.27,8.74 3.16,17.8 10.32,22.79c6.56,4.79 14.71,7.1 22.78,7.2c63.67,-0.01 127.35,0 191.02,0c4.62,-0.03 9.25,0.2 13.86,-0.22c9.15,-0.95 17.95,-4.31 25.73,-9.17c9.89,-6.19 17.19,-16.68 18.86,-28.31c2.56,-13 0.05,-26.78 -6.54,-38.23c-14.03,-25.09 -28.96,-49.65 -43.56,-74.4c-62.1,-104.26 -123.74,-208.79 -186.17,-312.85c-4.93,-8.21 -9.61,-16.74 -16.32,-23.68c-5.92,-5.73 -14.09,-9.95 -22.53,-8.87m-4,235.12c-9.67,1.62 -16.76,9.25 -21.73,17.19c-31.49,52.29 -62.54,104.85 -93.63,157.38c-7.96,14.03 -16.92,27.51 -23.94,42.05c-3.67,7.23 -4.35,15.77 -2.63,23.63c4.65,16.56 26.29,25.47 41.29,17.06c9.9,-4.49 15.66,-14.07 21,-23.02c36.12,-60.55 72.06,-121.21 108.18,-181.76c4.66,-7.84 9.03,-16.53 8.42,-25.92c-0.18,-7.57 -3.98,-14.78 -9.55,-19.78c-7.57,-6.1 -17.87,-8.65 -27.41,-6.83z" fill="#ffffff"/>
  </g>
  <g id="#70c6beff">
   <path id="svg_2" d="m372.33,100.27c8.44,-1.08 16.61,3.14 22.53,8.87c6.71,6.94 11.39,15.47 16.32,23.68c62.43,104.06 124.07,208.59 186.17,312.85c14.6,24.75 29.53,49.31 43.56,74.4c6.59,11.45 9.1,25.23 6.54,38.23c-1.67,11.63 -8.97,22.12 -18.86,28.31c-7.78,4.86 -16.58,8.22 -25.73,9.17c-4.61,0.42 -9.24,0.19 -13.86,0.22c-63.67,0 -127.35,-0.01 -191.02,0c-8.07,-0.1 -16.22,-2.41 -22.78,-7.2c-7.16,-4.99 -11.59,-14.05 -10.32,-22.79c0.89,-9.17 4.85,-17.68 9.63,-25.44c10.82,-18.77 21.65,-37.53 33.15,-55.9c5.16,-8.03 9.38,-16.95 16.59,-23.43c4.87,-4.16 10.6,-7.63 16.96,-8.82c9.04,-1.12 18.19,2.51 24.97,8.39c6.95,6.16 9.53,16.17 7.88,25.14c-2.58,14.52 -13.13,25.82 -17.34,39.74c-0.92,2.35 -0.44,5.39 2.07,6.53c4.99,2.51 10.75,2.65 16.22,2.79c27.67,-0.02 55.34,-0.02 83.02,0.01c5.04,-0.14 10.92,-0.42 14.59,-4.38c1.7,-5.94 -2.55,-11.22 -5.1,-16.2c-59.46,-101.8 -118.86,-203.63 -178.93,-305.08c-2.61,-4.29 -4.77,-8.97 -8.31,-12.62c-2.33,-2.69 -7,-2.37 -8.92,0.63c-5.67,7.2 -10.1,15.27 -14.86,23.07c-65.86,110.83 -131.72,221.65 -197.58,332.48c-6.29,10.31 -11.48,21.4 -19.35,30.66c-6.28,7.48 -15.75,12.4 -25.6,12.35c-5.38,0.01 -10.4,-2.27 -15.04,-4.77c-6.95,-3.74 -12.3,-10.62 -13.5,-18.5c-1.49,-9.66 1.55,-19.46 6.41,-27.75c56.45,-95.79 113.47,-191.24 170.19,-286.88c21.72,-36.61 43.75,-73.05 65.19,-109.84c5.5,-9.12 11.24,-18.1 16.77,-27.21c6.13,-10.19 16.01,-19.5 28.34,-20.71z" fill="#70c6be"/>
  </g>
  <g id="#1ba0d8ff">
   <path id="svg_3" d="m368.33,335.39c9.54,-1.82 19.84,0.73 27.41,6.83c5.57,5 9.37,12.21 9.55,19.78c0.61,9.39 -3.76,18.08 -8.42,25.92c-36.12,60.55 -72.06,121.21 -108.18,181.76c-5.34,8.95 -11.1,18.53 -21,23.02c-15,8.41 -36.64,-0.5 -41.29,-17.06c-1.72,-7.86 -1.04,-16.4 2.63,-23.63c7.02,-14.54 15.98,-28.02 23.94,-42.05c31.09,-52.53 62.14,-105.09 93.63,-157.38c4.97,-7.94 12.06,-15.57 21.73,-17.19z" fill="#1ba0d8"/>
  </g>
 </g>
</svg>