<?xml version="1.0" encoding="UTF-8" ?>
<!DOCTYPE svg PUBLIC "-//W3C//DTD SVG 1.1//EN" "http://www.w3.org/Graphics/SVG/1.1/DTD/svg11.dtd">
<svg width="1250pt" height="1250pt" viewBox="0 0 1250 1250" version="1.1" xmlns="http://www.w3.org/2000/svg">
<g id="#ffffffff">
<path fill="#ffffff" opacity="1.00" d=" M 0.00 0.00 L 1250.00 0.00 L 1250.00 1250.00 L 0.00 1250.00 L 0.00 0.00 M 632.37 136.38 C 621.49 137.35 611.55 142.62 602.72 148.75 C 592.63 156.27 584.13 165.85 577.55 176.56 C 548.93 222.00 522.06 268.50 494.68 314.68 C 435.08 414.77 375.23 514.72 316.06 615.06 C 275.00 684.59 233.38 753.79 192.30 823.31 C 152.44 890.20 112.93 957.29 73.35 1024.35 C 67.80 1033.54 63.22 1043.44 60.94 1053.98 C 57.92 1066.26 57.92 1079.55 62.51 1091.46 C 67.79 1105.65 80.07 1116.32 93.73 1122.25 C 104.01 1127.08 115.71 1129.16 126.97 1127.14 C 142.42 1124.88 156.52 1116.42 166.88 1104.90 C 176.95 1093.84 184.19 1080.66 192.03 1068.03 C 197.80 1057.55 203.65 1047.12 209.92 1036.93 C 324.58 843.93 439.27 650.94 553.94 457.94 C 574.67 423.33 594.89 388.41 616.04 354.06 C 620.18 347.00 624.69 340.15 629.68 333.66 C 631.91 330.91 634.11 327.90 637.34 326.25 C 641.58 324.52 646.41 326.39 649.45 329.55 C 655.63 335.74 659.23 343.85 663.81 351.19 C 688.78 393.24 713.59 435.39 738.56 477.44 C 832.75 637.69 926.45 798.24 1020.31 958.69 C 1025.68 967.91 1031.45 977.07 1034.64 987.34 C 1036.15 991.79 1035.18 997.39 1031.07 1000.13 C 1025.03 1004.44 1017.29 1005.29 1010.08 1005.69 C 951.70 1005.67 893.32 1005.67 834.94 1005.69 C 826.05 1005.37 816.93 1004.85 808.59 1001.49 C 805.67 1000.30 802.42 998.40 801.96 994.98 C 801.25 989.04 803.70 983.34 805.86 977.95 C 810.85 966.05 817.60 955.02 823.65 943.65 C 831.15 929.82 837.31 914.86 838.27 898.99 C 838.95 883.36 832.98 867.32 821.00 857.01 C 809.52 847.42 795.18 840.52 780.03 840.09 C 766.71 840.01 754.02 845.67 743.44 853.43 C 735.12 859.36 728.19 867.08 722.57 875.58 C 706.23 901.35 690.33 927.39 674.48 953.45 C 664.15 971.44 653.54 989.27 643.42 1007.38 C 635.15 1022.51 625.12 1037.07 621.01 1054.07 C 618.69 1064.00 616.90 1074.52 619.42 1084.60 C 621.02 1092.45 625.46 1099.36 630.39 1105.54 C 637.04 1113.73 646.52 1118.95 656.11 1122.95 C 666.30 1126.68 677.23 1128.02 688.02 1128.35 C 817.01 1128.38 946.01 1128.28 1075.00 1128.35 C 1085.10 1128.45 1095.32 1128.50 1105.21 1126.18 C 1122.00 1122.25 1138.45 1115.81 1152.22 1105.24 C 1167.68 1093.52 1179.69 1076.52 1183.23 1057.24 C 1187.34 1038.32 1187.16 1018.24 1181.22 999.72 C 1178.28 988.72 1172.59 978.78 1167.09 968.92 C 1148.23 935.36 1128.39 902.38 1108.71 869.31 C 1067.32 799.67 1025.82 730.10 984.63 660.36 C 930.12 568.24 875.48 476.20 820.82 384.18 C 781.00 317.38 740.87 250.77 701.04 183.98 C 692.09 168.89 681.52 154.10 666.54 144.49 C 656.64 137.65 644.25 135.05 632.37 136.38 M 626.34 606.37 C 610.87 608.92 597.80 619.33 588.66 631.67 C 582.37 639.35 578.00 648.33 572.76 656.72 C 541.48 709.12 510.21 761.53 478.93 813.93 C 445.26 870.93 411.61 927.94 377.93 984.93 C 367.48 1002.92 356.02 1020.38 347.31 1039.32 C 339.83 1053.97 337.41 1071.40 341.71 1087.37 C 344.97 1099.66 353.56 1109.95 363.85 1117.12 C 374.57 1124.02 387.16 1128.45 400.02 1127.97 C 411.87 1128.27 422.92 1122.97 432.65 1116.69 C 440.57 1111.08 447.77 1104.29 453.23 1096.22 C 462.92 1082.27 471.00 1067.31 479.85 1052.83 C 545.49 942.48 611.12 832.13 676.77 721.79 C 683.48 710.27 691.04 699.09 695.39 686.39 C 699.52 676.10 700.68 664.77 699.14 653.81 C 696.17 636.04 684.45 619.49 667.71 612.30 C 654.92 606.18 640.33 604.22 626.34 606.37 Z" />
</g>
<g id="#70c6beff">
<path fill="#70c6be" opacity="1.00" d=" M 632.37 136.38 C 644.25 135.05 656.64 137.65 666.54 144.49 C 681.52 154.10 692.09 168.89 701.04 183.98 C 740.87 250.77 781.00 317.38 820.82 384.18 C 875.48 476.20 930.12 568.24 984.63 660.36 C 1025.82 730.10 1067.32 799.67 1108.71 869.31 C 1128.39 902.38 1148.23 935.36 1167.09 968.92 C 1172.59 978.78 1178.28 988.72 1181.22 999.72 C 1187.16 1018.24 1187.34 1038.32 1183.23 1057.24 C 1179.69 1076.52 1167.68 1093.52 1152.22 1105.24 C 1138.45 1115.81 1122.00 1122.25 1105.21 1126.18 C 1095.32 1128.50 1085.10 1128.45 1075.00 1128.35 C 946.01 1128.28 817.01 1128.38 688.02 1128.35 C 677.23 1128.02 666.30 1126.68 656.11 1122.95 C 646.52 1118.95 637.04 1113.73 630.39 1105.54 C 625.46 1099.36 621.02 1092.45 619.42 1084.60 C 616.90 1074.52 618.69 1064.00 621.01 1054.07 C 625.12 1037.07 635.15 1022.51 643.42 1007.38 C 653.54 989.27 664.15 971.44 674.48 953.45 C 690.33 927.39 706.23 901.35 722.57 875.58 C 728.19 867.08 735.12 859.36 743.44 853.43 C 754.02 845.67 766.71 840.01 780.03 840.09 C 795.18 840.52 809.52 847.42 821.00 857.01 C 832.98 867.32 838.95 883.36 838.27 898.99 C 837.31 914.86 831.15 929.82 823.65 943.65 C 817.60 955.02 810.85 966.05 805.86 977.95 C 803.70 983.34 801.25 989.04 801.96 994.98 C 802.42 998.40 805.67 1000.30 808.59 1001.49 C 816.93 1004.85 826.05 1005.37 834.94 1005.69 C 893.32 1005.67 951.70 1005.67 1010.08 1005.69 C 1017.29 1005.29 1025.03 1004.44 1031.07 1000.13 C 1035.18 997.39 1036.15 991.79 1034.64 987.34 C 1031.45 977.07 1025.68 967.91 1020.31 958.69 C 926.45 798.24 832.75 637.69 738.56 477.44 C 713.59 435.39 688.78 393.24 663.81 351.19 C 659.23 343.85 655.63 335.74 649.45 329.55 C 646.41 326.39 641.58 324.52 637.34 326.25 C 634.11 327.90 631.91 330.91 629.68 333.66 C 624.69 340.15 620.18 347.00 616.04 354.06 C 594.89 388.41 574.67 423.33 553.94 457.94 C 439.27 650.94 324.58 843.93 209.92 1036.93 C 203.65 1047.12 197.80 1057.55 192.03 1068.03 C 184.19 1080.66 176.95 1093.84 166.88 1104.90 C 156.52 1116.42 142.42 1124.88 126.97 1127.14 C 115.71 1129.16 104.01 1127.08 93.73 1122.25 C 80.07 1116.32 67.79 1105.65 62.51 1091.46 C 57.92 1079.55 57.92 1066.26 60.94 1053.98 C 63.22 1043.44 67.80 1033.54 73.35 1024.35 C 112.93 957.29 152.44 890.20 192.30 823.31 C 233.38 753.79 275.00 684.59 316.06 615.06 C 375.23 514.72 435.08 414.77 494.68 314.68 C 522.06 268.50 548.93 222.00 577.55 176.56 C 584.13 165.85 592.63 156.27 602.72 148.75 C 611.55 142.62 621.49 137.35 632.37 136.38 Z" />
</g>
<g id="#1ba0d8ff">
<path fill="#1ba0d8" opacity="1.00" d=" M 626.34 606.37 C 640.33 604.22 654.92 606.18 667.71 612.30 C 684.45 619.49 696.17 636.04 699.14 653.81 C 700.68 664.77 699.52 676.10 695.39 686.39 C 691.04 699.09 683.48 710.27 676.77 721.79 C 611.12 832.13 545.49 942.48 479.85 1052.83 C 471.00 1067.31 462.92 1082.27 453.23 1096.22 C 447.77 1104.29 440.57 1111.08 432.65 1116.69 C 422.92 1122.97 411.87 1128.27 400.02 1127.97 C 387.16 1128.45 374.57 1124.02 363.85 1117.12 C 353.56 1109.95 344.97 1099.66 341.71 1087.37 C 337.41 1071.40 339.83 1053.97 347.31 1039.32 C 356.02 1020.38 367.48 1002.92 377.93 984.93 C 411.61 927.94 445.26 870.93 478.93 813.93 C 510.21 761.53 541.48 709.12 572.76 656.72 C 578.00 648.33 582.37 639.35 588.66 631.67 C 597.80 619.33 610.87 608.92 626.34 606.37 Z" />
</g>
</svg>
